<?xml version="1.0" encoding="UTF-8" standalone="no"?>
<svg
   id="svg4153"
   version="1.1"
   viewBox="0 0 22 22"
   sodipodi:docname="user.svg"
   inkscape:version="1.1.1 (3bf5ae0d25, 2021-09-20)"
   xmlns:inkscape="http://www.inkscape.org/namespaces/inkscape"
   xmlns:sodipodi="http://sodipodi.sourceforge.net/DTD/sodipodi-0.dtd"
   xmlns="http://www.w3.org/2000/svg"
   xmlns:svg="http://www.w3.org/2000/svg"
   xmlns:rdf="http://www.w3.org/1999/02/22-rdf-syntax-ns#"
   xmlns:cc="http://creativecommons.org/ns#"
   xmlns:dc="http://purl.org/dc/elements/1.1/">
  <metadata
     id="metadata64">
    <rdf:RDF>
      <cc:Work
         rdf:about="">
        <dc:format>image/svg+xml</dc:format>
        <dc:type
           rdf:resource="http://purl.org/dc/dcmitype/StillImage" />
        <dc:title />
      </cc:Work>
    </rdf:RDF>
  </metadata>
  <defs
     id="defs62" />
  <sodipodi:namedview
     pagecolor="#c8c8c8"
     bordercolor="#666666"
     borderopacity="1"
     objecttolerance="10"
     gridtolerance="10"
     guidetolerance="10"
     inkscape:pageopacity="0"
     inkscape:pageshadow="2"
     inkscape:window-width="1366"
     inkscape:window-height="695"
     id="namedview60"
     showgrid="true"
     inkscape:zoom="3.7926636"
     inkscape:cx="-191.29036"
     inkscape:cy="38.231706"
     inkscape:window-x="0"
     inkscape:window-y="0"
     inkscape:window-maximized="1"
     inkscape:current-layer="user-desktop"
     inkscape:pagecheckerboard="0">
    <inkscape:grid
       type="xygrid"
       id="grid874" />
  </sodipodi:namedview>
  <style
     id="current-color-scheme"
     type="text/css">
        .ColorScheme-Text {
            color:#232629;
        }
        .ColorScheme-Background {
            color:#eff0f1;
        }
    </style>
  <g
     id="user-away">
    <path
       id="rect4562"
       d="m-44 0h22v22h-22z"
       fill="none"
       opacity=".97" />
    <path
       id="path4149"
       d="m-33 2.99961a3.9999902 4.0000296 0 0 0-4 4 3.9999902 4.0000296 0 0 0 4 4 3.9999902 4.0000296 0 0 0 4-4 3.9999902 4.0000296 0 0 0-4-4zm0 1a3 3.0000296 0 0 1 3 3 3 3.0000296 0 0 1-3 3 3 3.0000296 0 0 1-3-3 3 3.0000296 0 0 1 3-3z"
       fill="#fdbc4b" />
    <path
       id="ellipse4156"
       d="m-33 12a7.9999504 8.0000296 0 0 0-7.927734 7h1.007812a6.9999604 7.0000296 0 0 1 6.919922-6 6.9999604 7.0000296 0 0 1 1 0.08008v-1.009766a7.9999504 8.0000296 0 0 0-1-0.070314z"
       fill="#fdbc4b" />
    <path
       id="path4227"
       d="m-25 11-8 4 2 1 1 3 1-2 2 1z"
       fill="#fdbc4b"
       fill-rule="evenodd" />
  </g>
  <g
     id="user-busy">
    <path
       id="rect4560"
       d="m-66 0h22v22h-22z"
       fill="none"
       opacity=".97" />
    <path
       id="path4149-4"
       d="m-55 2.99961a3.9999902 4.0000296 0 0 0-4 4 3.9999902 4.0000296 0 0 0 4 4 3.9999902 4.0000296 0 0 0 4-4 3.9999902 4.0000296 0 0 0-4-4zm0 1a3 3.0000296 0 0 1 3 3 3 3.0000296 0 0 1-3 3 3 3.0000296 0 0 1-3-3 3 3.0000296 0 0 1 3-3z"
       fill="#f47750" />
    <path
       id="ellipse4156-7"
       d="m-55 12a7.9999504 8.0000296 0 0 0-7.927734 7h1.007812a6.9999604 7.0000296 0 0 1 6.919922-6 6.9999604 7.0000296 0 0 1 1 0.08008v-1.009766a7.9999504 8.0000296 0 0 0-1-0.070314z"
       fill="#f47750" />
    <path
       id="path4169"
       d="m-50.5 12a3.5 3.5 0 0 0-3.5 3.5 3.5 3.5 0 0 0 3.5 3.5 3.5 3.5 0 0 0 3.5-3.5 3.5 3.5 0 0 0-3.5-3.5z"
       fill="#f47750" />
    <path
       id="rect4146"
       class="ColorScheme-Background"
       d="m-51 13v3h2v-1h-1v-2z"
       fill="currentColor" />
  </g>
  <g
     id="user-invisible">
    <path
       id="rect4556"
       d="m22 0h22v22h-22z"
       fill="none"
       opacity=".97" />
    <path
       id="path4149-7"
       class="ColorScheme-Text"
       d="m33 2.99961a3.9999902 4.0000296 0 0 0-4 4 3.9999902 4.0000296 0 0 0 4 4 3.9999902 4.0000296 0 0 0 4-4 3.9999902 4.0000296 0 0 0-4-4zm0 1a3 3.0000296 0 0 1 3 3 3 3.0000296 0 0 1-3 3 3 3.0000296 0 0 1-3-3 3 3.0000296 0 0 1 3-3z"
       fill="currentColor"
       style="fill:#eaeaea;fill-opacity:1" />
    <path
       id="ellipse4156-0"
       class="ColorScheme-Text"
       d="m33 12a7.9999504 8.0000296 0 0 0-7.927734 7h1.007812a6.9999604 7.0000296 0 0 1 6.919922-6 6.9999604 7.0000296 0 0 1 1 0.08008v-1.009766a7.9999504 8.0000296 0 0 0-1-0.070314z"
       fill="currentColor"
       style="fill:#eaeaea;fill-opacity:1" />
    <circle
       id="path4167"
       cx="37.500004"
       cy="15.5"
       r="3.5"
       fill="#666"
       style="fill:#ffffff;fill-opacity:1" />
    <path
       id="rect4152"
       class="ColorScheme-Background"
       transform="matrix(.70710678 .70710678 -.70710678 .70710678 0 0)"
       d="m36.976669-17.884859h1v4.657h-1z"
       fill="currentColor"
       style="fill:#c8c8c8;fill-opacity:1" />
  </g>
  <g
     id="user-offline">
    <path
       id="rect4564"
       d="m-22 0h22v22h-22z"
       fill="none"
       opacity=".97" />
    <ellipse
       id="path4146"
       class="ColorScheme-Background"
       cx="-6.499996"
       cy="15.5"
       rx="3.250001"
       ry="3.249986"
       fill="currentColor"
       style="fill:#ebebeb;fill-opacity:1" />
    <path
       id="path4149-3"
       d="m-11 2.99961a3.9999902 4.0000296 0 0 0-4 4 3.9999902 4.0000296 0 0 0 4 4 3.9999902 4.0000296 0 0 0 4-4 3.9999902 4.0000296 0 0 0-4-4zm0 1a3 3.0000296 0 0 1 3 3 3 3.0000296 0 0 1-3 3 3 3.0000296 0 0 1-3-3 3 3.0000296 0 0 1 3-3z"
       fill="#bdc3c7"
       style="fill:#ffffff;fill-opacity:1" />
    <path
       id="ellipse4156-75"
       d="m-11 12a7.9999504 8.0000296 0 0 0-7.927734 7h1.007812a6.9999604 7.0000296 0 0 1 6.919922-6 6.9999604 7.0000296 0 0 1 1 0.08008v-1.009766a7.9999504 8.0000296 0 0 0-1-0.070314z"
       fill="#bdc3c7"
       style="fill:#ffffff;fill-opacity:1" />
    <path
       id="path4167-8"
       d="m-6.5 12a3.5 3.5 0 0 0-3.5 3.5 3.5 3.5 0 0 0 3.5 3.5 3.5 3.5 0 0 0 3.5-3.5 3.5 3.5 0 0 0-3.5-3.5zm0 1a2.5 2.5 0 0 1 2.5 2.5 2.5 2.5 0 0 1-2.5 2.5 2.5 2.5 0 0 1-2.5-2.5 2.5 2.5 0 0 1 2.5-2.5z"
       fill="#bdc3c7"
       style="fill:#ffffff;fill-opacity:1" />
    <path
       id="rect4152-8"
       transform="rotate(90)"
       d="m15 4.999996h.999971v2.999991h-.999971z"
       fill="#bdc3c7"
       style="fill:#c8c8c8;fill-opacity:1" />
  </g>
  <g
     id="user-online">
    <path
       id="rect4554"
       d="m0 0h22v22h-22z"
       fill="none"
       opacity=".97" />
    <path
       id="path4149-8"
       d="m10.96392 2.99961a3.9999902 4.0000296 0 0 0-4 4 3.9999902 4.0000296 0 0 0 4 4 3.9999902 4.0000296 0 0 0 4-4 3.9999902 4.0000296 0 0 0-4-4zm0 1a3 3.0000296 0 0 1 3 3 3 3.0000296 0 0 1-3 3 3 3.0000296 0 0 1-3-3 3 3.0000296 0 0 1 3-3z"
       fill="#43be80" />
    <path
       id="ellipse4156-8"
       d="m10.96392 12a7.9999504 8.0000296 0 0 0-7.9277344 7h1.0078125a6.9999604 7.0000296 0 0 1 6.9199219-6 6.9999604 7.0000296 0 0 1 1 0.08008v-1.009766a7.9999504 8.0000296 0 0 0-1-0.07031z"
       fill="#43be80" />
    <circle
       id="path4144"
       cx="15.463924"
       cy="15.5"
       r="3.5"
       fill="#43be80" />
    <path
       id="path4166"
       class="ColorScheme-Background"
       d="m16.96391 14.00003 1 1-3 3-2-2 1-1 1 1z"
       fill="currentColor"
       fill-rule="evenodd" />
  </g>
  <g
     id="user-identity">
    <path
       id="rect4585"
       d="m-88 0h22v22h-22z"
       fill="none"
       opacity=".97" />
    <path
       id="path4149-2"
       class="ColorScheme-Text"
       d="m-77 3a3.9999902 4.0000296 0 0 0-4 4 3.9999902 4.0000296 0 0 0 4 4 3.9999902 4.0000296 0 0 0 4-4 3.9999902 4.0000296 0 0 0-4-4zm0 1a3 3.0000296 0 0 1 3 3 3 3.0000296 0 0 1-3 3 3 3.0000296 0 0 1-3-3 3 3.0000296 0 0 1 3-3zm0 8a7.9999504 8.0000296 0 0 0-7.927734 7h1.007812a6.9999604 7.0000296 0 0 1 6.919922-6 6.9999604 7.0000296 0 0 1 6.921875 6h1.007813a7.9999504 8.0000296 0 0 0-7.929688-7z"
       fill="currentColor"
       style="fill:#eaeaea;fill-opacity:1" />
  </g>
  <g
     id="user-away-extended">
    <path
       id="rect4649"
       d="m44 0h22v22h-22z"
       fill="none"
       opacity=".97" />
    <circle
       id="circle4653"
       cx="59.500015"
       cy="15.5"
       r="3.499985"
       fill="#9b59b6" />
    <path
       id="path4655"
       d="m55.00004 2.99961a3.9999902 4.0000296 0 0 0-4 4 3.9999902 4.0000296 0 0 0 4 4 3.9999902 4.0000296 0 0 0 4-4 3.9999902 4.0000296 0 0 0-4-4zm0 1a3 3.0000296 0 0 1 3 3 3 3.0000296 0 0 1-3 3 3 3.0000296 0 0 1-3-3 3 3.0000296 0 0 1 3-3z"
       fill="#9b59b6" />
    <path
       id="path4657"
       d="m55.00004 12a7.9999504 8.0000296 0 0 0-7.927734 7h1.007812a6.9999604 7.0000296 0 0 1 6.919922-6 6.9999604 7.0000296 0 0 1 1 0.08008v-1.009766a7.9999504 8.0000296 0 0 0-1-0.07031z"
       fill="#9b59b6" />
    <circle
       id="circle4659"
       class="ColorScheme-Background"
       transform="rotate(90)"
       cx="15.5"
       cy="-57.500046"
       r=".5"
       fill="currentColor"
       opacity=".7" />
    <circle
       id="circle4661"
       class="ColorScheme-Background"
       cx="59.500046"
       cy="15.5"
       r=".5"
       fill="currentColor"
       opacity=".4" />
    <circle
       id="circle4663"
       class="ColorScheme-Background"
       cx="61.500046"
       cy="15.5"
       r=".5"
       fill="currentColor"
       opacity=".3" />
  </g>
  <g
     id="user-desktop"
     transform="translate(-260)">
    <path
       id="rect846-6"
       d="m 100,-32 h 64 v 64 h -64 z"
       fill="none" />
    <g
       transform="matrix(3.3596977,0,0,3.3596977,103.55546,-969.38539)"
       id="path819-3-7">
      <rect
         x="1.3229001"
         y="281.39001"
         width="14.287"
         height="14.287"
         ry="7.1436"
         fill="#8daaff"
         style="paint-order:stroke markers fill"
         id="rect2-6-7" />
      <rect
         x="3.4400001"
         y="291.17999"
         width="10.054"
         height="1.323"
         ry="0.26499999"
         fill="#ffffff"
         opacity="0.35"
         style="paint-order:markers stroke fill"
         id="rect4-7-0" />
      <g
         fill="#ccdfff"
         id="g14-5-9">
        <rect
           x="4.4980001"
           y="290.38"
           width="1.323"
           height="1.323"
           ry="0.132"
           style="paint-order:stroke markers fill"
           id="rect6-3-3" />
        <rect
           x="6.7030001"
           y="290.38"
           width="1.323"
           height="1.323"
           ry="0.132"
           style="paint-order:stroke markers fill"
           id="rect8-5-6" />
        <rect
           x="8.908"
           y="290.38"
           width="1.323"
           height="1.323"
           ry="0.132"
           style="paint-order:stroke markers fill"
           id="rect10-6-0" />
        <rect
           x="11.113"
           y="290.38"
           width="1.323"
           height="1.323"
           ry="0.132"
           style="paint-order:stroke markers fill"
           id="rect12-2-6" />
      </g>
      <path
         transform="matrix(0.26458,0,0,0.26458,0,280.07)"
         d="M 32,5 C 26.7906,5 21.937,6.4644 17.82,9 H 46.179 C 42.0625,6.4644 37.2087,5 31.999,5 Z"
         opacity="0.35"
         stroke-width="3.7796"
         style="paint-order:stroke markers fill"
         id="path16-9-2" />
      <rect
         x="7.1436"
         y="281.64999"
         width="2.6458001"
         height="0.52916002"
         ry="0.26508"
         opacity="0.35"
         style="paint-order:stroke markers fill"
         id="rect18-1-6" />
    </g>
  </g>
</svg>
